<?xml version="1.0" encoding="UTF-8"?>
<svg width="240px" height="240px" viewBox="0 0 240 240" version="1.1" xmlns="http://www.w3.org/2000/svg" xmlns:xlink="http://www.w3.org/1999/xlink">
    <title>Oval</title>
    <g id="Page-1" stroke="none" stroke-width="1" fill="none" fill-rule="evenodd">
        <g id="Group">
            <g id="Oval">
                <circle fill="#000000" cx="120" cy="120" r="98"></circle>
                <circle stroke="#000000" stroke-width="7" cx="120" cy="120" r="116.5"></circle>
            </g>
            <g id="question-solid" transform="translate(73.000000, 52.000000)" fill="#FFFFFF" fill-rule="nonzero">
                <path d="M47.1257818,0 C25.8047733,0 11.9950936,8.68673438 1.15308334,24.1787813 C-0.813698825,26.9890937 -0.207343328,30.84225 2.53621496,32.9109375 L14.0591063,41.5992656 C16.8299105,43.6884063 20.7722897,43.1999219 22.9415466,40.4974531 C29.6325593,32.161875 34.5958595,27.3625625 45.0473447,27.3625625 C53.2649309,27.3625625 63.4292654,32.6216719 63.4292654,40.5457969 C63.4292654,46.5361719 58.456349,49.6126406 50.3424042,54.1362344 C40.8803202,59.4115469 28.3589456,65.9767344 28.3589456,82.4000625 L28.3589456,85 C28.3589456,88.5208594 31.2291173,91.375 34.7697526,91.375 L54.1279858,91.375 C57.6686211,91.375 60.5387928,88.5208594 60.5387928,85 L60.5387928,83.4665469 C60.5387928,72.0818594 94,71.6077187 94,40.8 C94,17.59925 69.7989364,0 47.1257818,0 Z M44.4490028,99.2000469 C34.2462034,99.2000469 25.9455439,107.454344 25.9455439,117.600156 C25.9455439,127.745703 34.2462034,136 44.4490028,136 C54.6518021,136 62.9524616,127.745703 62.9524616,117.599891 C62.9524616,107.454078 54.6518021,99.2000469 44.4490028,99.2000469 Z" id="Shape"></path>
            </g>
        </g>
    </g>
</svg>