<?xml version="1.0" encoding="UTF-8"?>
<svg width="11px" height="18px" viewBox="0 0 11 18" version="1.1" xmlns="http://www.w3.org/2000/svg" xmlns:xlink="http://www.w3.org/1999/xlink">
    <title>Icon/ArrowRight</title>
    <g id="Icon/ArrowRight" stroke="none" stroke-width="1" fill="none" fill-rule="evenodd" opacity="0.3">
        <path d="M10.7013343,8.29763986 L2.36905925,0.287558638 C2.1763439,0.102145511 1.91908565,0 1.64477833,0 C1.37047102,0 1.11321277,0.102145511 0.920497416,0.287558638 L0.306883213,0.877309941 C-0.0923998563,1.2615995 -0.0923998563,1.88617979 0.306883213,2.26988398 L7.30369869,8.99626832 L0.299119798,15.730116 C0.106404447,15.9155291 0,16.1626979 0,16.4262567 C0,16.6901082 0.106404447,16.9372769 0.299119798,17.1228364 L0.912734001,17.7124414 C1.10560158,17.8978545 1.3627076,18 1.63701492,18 C1.91132223,18 2.16858048,17.8978545 2.36129583,17.7124414 L10.7013343,9.69504313 C10.8945063,9.50904464 11.0006063,9.2607052 11,8.99670734 C11.0006063,8.73168511 10.8945063,8.483492 10.7013343,8.29763986 Z" id="Path" fill="#FFFFFF" fill-rule="nonzero"></path>
    </g>
</svg>