<?xml version="1.0" encoding="UTF-8"?>
<svg width="240px" height="240px" viewBox="0 0 240 240" version="1.1" xmlns="http://www.w3.org/2000/svg" xmlns:xlink="http://www.w3.org/1999/xlink">
    <title>Oval</title>
    <g id="Page-1" stroke="none" stroke-width="1" fill="none" fill-rule="evenodd">
        <g id="Group">
            <circle id="Oval" fill="#000000" cx="120" cy="120" r="98"></circle>
            <circle id="Oval" stroke="#000000" stroke-width="7" cx="120" cy="120" r="116.5"></circle>
            <path d="M154.375,107.5 L151.25,107.5 L151.25,91.3378906 C151.25,89.6796875 150.591797,88.0917969 149.419922,86.9179688 L134.330078,71.8300781 C133.158203,70.6582031 131.568359,70 129.910156,70 L94.703125,70 C91.4140625,70 88.75,72.7988281 88.75,76.25 L88.75,107.5 L85.625,107.5 C76.9960938,107.5 70,114.496094 70,123.125 L70,141.875 C70,143.601562 71.3984375,145 73.125,145 L88.75,145 L88.75,166.875 C88.75,168.601562 90.1484375,170 91.875,170 L148.125,170 C149.851562,170 151.25,168.601562 151.25,166.875 L151.25,145 L166.875,145 C168.601562,145 170,143.601562 170,141.875 L170,123.125 C170,114.496094 163.003906,107.5 154.375,107.5 Z M132,79 L142,89 L132,89 L132,79 Z M95.0195328,76 L126.248535,76 L126.248535,88.4 C126.248535,91.8235625 129.047582,94.6 132.499023,94.6 L145,94.6 L145,107 L95,107 L95.0195328,76 Z M145,164 L95,164 L95,145 L145,145 L145,164 Z M164,139 L76,139 L76,123.375 C76,118.205078 80.2291071,114 85.4285714,114 L154.571429,114 C159.770893,114 164,118.205078 164,123.375 L164,139 Z M148.5,122 C146.015625,122 144,124.01375 144,126.5 C144,128.984375 146.015625,131 148.5,131 C150.984375,131 153,128.984375 153,126.5 C153,124.01375 150.984375,122 148.5,122 Z" id="Shape" fill="#FFFFFF" fill-rule="nonzero" transform="translate(120.000000, 120.000000) scale(1, -1) translate(-120.000000, -120.000000) "></path>
        </g>
    </g>
</svg>