<?xml version="1.0" encoding="UTF-8"?>
<svg width="240px" height="240px" viewBox="0 0 240 240" version="1.1" xmlns="http://www.w3.org/2000/svg" xmlns:xlink="http://www.w3.org/1999/xlink">
    <title>Oval</title>
    <g id="Page-1" stroke="none" stroke-width="1" fill="none" fill-rule="evenodd">
        <g id="Group">
            <g id="Oval">
                <circle fill="#000000" cx="120" cy="120" r="98"></circle>
                <circle stroke="#000000" stroke-width="7" cx="120" cy="120" r="116.5"></circle>
            </g>
            <g id="rss-solid" transform="translate(76.000000, 76.000000)" fill="#FFFFFF" fill-rule="nonzero">
                <path d="M25.1587459,75.4203605 C25.1587459,82.3678211 19.5267508,87.9998036 12.5792747,87.9998036 C5.63179866,87.9998036 0,82.3678211 0,75.4203605 C0,68.4728999 5.63199509,62.8409174 12.5794712,62.8409174 C19.5269472,62.8409174 25.1587459,68.4730963 25.1587459,75.4203605 L25.1587459,75.4203605 Z M59.6633587,84.7015817 C58.0223958,54.3338188 33.6984706,29.9793051 3.29822927,28.3365781 C1.50385583,28.2395427 0,29.6813239 0,31.4782469 L0,40.9203426 C0,42.5732839 1.27482032,43.959476 2.92422959,44.0667257 C24.8912104,45.497507 42.4992486,63.0617024 43.9329795,85.0753841 C44.0404259,86.7247897 45.4266211,87.9996071 47.0793696,87.9996071 L56.5214864,87.9996071 C58.3186098,87.9996071 59.7603943,86.4959511 59.6633587,84.7015817 Z M87.9979589,84.7581529 C86.3491389,38.8293669 49.3948676,1.65891091 3.24165789,0.00204105553 C1.46790943,-0.061601604 0,1.37134038 0,3.14606701 L0,12.5879663 C0,14.2821574 1.34258811,15.6610817 3.03540807,15.7306172 C40.5883932,17.270416 70.7299383,47.4175903 72.2695441,84.9645987 C72.3388833,86.6574149 73.7178107,88 75.4122021,88 L84.8541224,88 C86.6286566,88 88.0616017,86.5318974 87.9979589,84.7581529 L87.9979589,84.7581529 Z" id="Shape"></path>
            </g>
        </g>
    </g>
</svg>